# xmcd CD database file
#
# Track frame offsets:
#	150
#	42697
#	77002
#	87650
#	139045
#
# Disc length: 2318 seconds
#
# Revision: 1
# Processed by: cddbd v1.5.1PL0 Copyright (c) Steve Scherf et al.
# Submitted via: CDex 1.51
#
DISCID=40090c05
DTITLE=Art Blakey - At The Jazz Corner Of The World Volume 1
DYEAR=1959
DGENRE=Jazz
TTITLE0=Hipsippy Blues
TTITLE1=Justice
TTITLE2=The Theme
TTITLE3=Close Your Eyes
TTITLE4=Just Coolin'
EXTD=YEAR: 1959
EXTT0=
EXTT1=
EXTT2=
EXTT3=
EXTT4=
PLAYORDER=
